# xmcd CD database file
#
# Track frame offsets:
#	150
#	12276
#	25511
#	35388
#	48390
#	60464
#	74843
#	87021
#	100547
#	112598
#	124991
#	136633
#	148775
#	162044
#	172409
#	184011
#	197747
#	209720
#	226475
#	239188
#
# Disc length: 3400 seconds
#
# Revision: 0
# Processed by: cddbd v1.5.2PL0 Copyright (c) Steve Scherf et al.
# Submitted via: CDex 1.51
#
DISCID=180d4614
DTITLE=John Lee Hooker - Crawlin' King Snake
DYEAR=2006
DGENRE=Blues
TTITLE0=I'm A Stranger
TTITLE1=I Need Lovin'
TTITLE2=Run On
TTITLE3=Looking For Romance
TTITLE4=Reach My Goal (How Long Must I Be Your Slave)
TTITLE5=Whistle Done Blown
TTITLE6=I'm Mad Again
TTITLE7=Trouble Blues
TTITLE8=Everybody Rockin'
TTITLE9=Crawlin' Black Spider
TTITLE10=Hard Headed Woman
TTITLE11=How Can You Do It
TTITLE12=Union Station Blues
TTITLE13=Feed Her All Night
TTITLE14=Little Wheel
TTITLE15=Road Is So Rough
TTITLE16=Crawlin' King Snake
TTITLE17=Process
TTITLE18=Do The Boogie
TTITLE19=Blues For Christmas
EXTD=YEAR: 2006
EXTT0=
EXTT1=
EXTT2=
EXTT3=
EXTT4=
EXTT5=
EXTT6=
EXTT7=
EXTT8=
EXTT9=
EXTT10=
EXTT11=
EXTT12=
EXTT13=
EXTT14=
EXTT15=
EXTT16=
EXTT17=
EXTT18=
EXTT19=
PLAYORDER=
